<svg width="81" height="82" viewBox="0 0 81 82" fill="none" xmlns="http://www.w3.org/2000/svg">
<circle opacity="0.1" cx="40.3077" cy="41.2528" r="40.3077" fill="#FFB84C"/>
<circle cx="40.308" cy="41.2529" r="35.7011" fill="#FFB84C"/>
<path fill-rule="evenodd" clip-rule="evenodd" d="M39.6975 25.9875C30.9679 25.9875 23.8911 33.0643 23.8911 41.7939C23.8911 50.5235 30.9679 57.6003 39.6975 57.6003C48.4271 57.6003 55.5039 50.5235 55.5039 41.7939C55.5039 33.0643 48.4271 25.9875 39.6975 25.9875ZM39.6975 28.2759C47.1633 28.2759 53.2155 34.3281 53.2155 41.7939C53.2155 49.2597 47.1633 55.312 39.6975 55.312C32.2317 55.312 26.1795 49.2597 26.1795 41.7939C26.1795 34.3281 32.2317 28.2759 39.6975 28.2759ZM44.4526 35.6051L36.6886 38.0349C36.3307 38.1469 36.0504 38.4272 35.9384 38.7851L33.5087 46.5491C33.2329 47.4304 34.061 48.2586 34.9424 47.9828L42.7063 45.553C43.0643 45.441 43.3446 45.1607 43.4566 44.8028L45.8863 37.0388C46.1621 36.1575 45.334 35.3293 44.4526 35.6051ZM43.0491 38.4407L41.4503 43.5468L36.3443 45.1456L37.9431 40.0395L43.0491 38.4407Z" fill="white"/>
</svg>
