<svg xmlns="http://www.w3.org/2000/svg" version="1.1" xmlns:xlink="http://www.w3.org/1999/xlink" width="512" height="512" x="0" y="0" viewBox="0 0 512 512" style="enable-background:new 0 0 512 512" xml:space="preserve" class=""><g><path d="M467 120H287c-24.814 0-45 20.186-45 45v122c0 24.814 20.186 45 45 45h15v45a14.983 14.983 0 0 0 9.258 13.857 14.993 14.993 0 0 0 16.347-3.252L383.211 332H467c24.814 0 45-20.186 45-45V165c0-24.814-20.186-45-45-45zm-90 152h-60c-8.291 0-15-6.709-15-15s6.709-15 15-15h60c8.291 0 15 6.709 15 15s-6.709 15-15 15zm60-62H317c-8.291 0-15-6.709-15-15s6.709-15 15-15h120c8.291 0 15 6.709 15 15s-6.709 15-15 15zM287 0H45C20.186 0 0 20.186 0 45v15h332V45c0-24.814-20.186-45-45-45z" fill="#f5972a" opacity="1" data-original="#000000" class=""></path><path d="M299.7 418.543C282.913 411.614 272 395.296 272 377v-16.509c-34.189-6.973-60-37.266-60-73.491V165c0-41.353 33.647-75 75-75H0v317c0 8.291 6.709 15 15 15h302a44.638 44.638 0 0 1-17.3-3.457zM0 452v15c0 24.814 20.186 45 45 45h242c24.814 0 45-20.186 45-45v-15H0z" fill="#f5972a" opacity="1" data-original="#000000" class=""></path></g></svg>