<svg width="82" height="81" viewBox="0 0 82 81" fill="none" xmlns="http://www.w3.org/2000/svg">
<circle opacity="0.1" cx="40.9298" cy="40.5714" r="40.3077" fill="#A64CFF"/>
<circle cx="40.9301" cy="40.5712" r="35.7011" fill="#A64DFF"/>
<path fill-rule="evenodd" clip-rule="evenodd" d="M39.9599 24.9271L29.4588 28.5125C28.2832 28.9125 27.4961 29.9911 27.4961 31.2027V41.6945C27.4961 44.8902 28.6862 47.9684 30.8298 50.3664C31.8396 51.4982 33.1262 52.4397 34.6869 53.2588L40.3729 56.2397C40.7277 56.4257 41.155 56.4256 41.5097 56.2394L47.1857 53.2603C48.7422 52.4425 50.0289 51.4992 51.0388 50.367C53.1792 47.9707 54.3669 44.8945 54.3669 41.7007V31.2027C54.3669 29.9911 53.5798 28.9125 52.4029 28.5121L41.9046 24.9276C41.2761 24.7127 40.5896 24.7127 39.9599 24.9271ZM41.1102 27.1207L51.6108 30.706C51.8292 30.7803 51.974 30.9787 51.974 31.2026V41.7007C51.974 44.3333 50.9951 46.8687 49.231 48.8437L48.9178 49.1757C48.1586 49.9373 47.2022 50.6085 46.0479 51.215L40.9395 53.8948L35.8237 51.2129C34.5004 50.5184 33.44 49.7424 32.6372 48.8426C30.8699 46.8657 29.889 44.3285 29.889 41.6945V31.2026C29.889 30.9787 30.0338 30.7803 30.2509 30.7064L40.7523 27.1209C40.8682 27.0814 40.9953 27.0814 41.1102 27.1207ZM46.8673 36.21C46.4 35.7561 45.6425 35.7561 45.1752 36.21L39.8021 41.4298L37.6308 39.318L37.4967 39.2054C37.0284 38.8676 36.3637 38.9049 35.9388 39.3175C35.4714 39.7714 35.4712 40.5074 35.9383 40.9615L38.9566 43.8957L39.0908 44.0083C39.5592 44.3461 40.224 44.3087 40.6489 43.8959L46.8673 37.854L46.9831 37.7237C47.3306 37.2686 47.292 36.6227 46.8673 36.21Z" fill="white"/>
</svg>
