<svg width="60" height="51" viewBox="0 0 60 51" fill="none" xmlns="http://www.w3.org/2000/svg">
<path d="M48.2297 11.197C48.2297 8.59156 46.1177 6.47948 43.5122 6.47948C40.9068 6.47948 38.7947 8.59156 38.7947 11.197C38.7947 12.1214 39.0647 12.9802 39.524 13.7085C37.9999 17.1088 36.049 20.882 33.5407 24.8329C31.2243 28.4823 28.8523 31.6217 26.6206 34.2762C26.6273 34.2811 26.6339 34.2861 26.6406 34.2911C25.9662 34.1184 25.2627 34.0162 24.5343 34.0162C23.4737 34.0162 22.4629 34.2197 21.5277 34.576C20.5385 33.674 19.5078 32.6367 18.4788 31.444C16.4979 29.1492 15.0478 26.8893 13.9789 24.9134C14.9864 23.6003 15.591 21.9617 15.591 20.1793C15.591 15.8738 12.101 12.3838 7.79549 12.3838C3.48995 12.3838 0 15.8738 0 20.1793C0 24.4849 3.48995 27.9748 7.79549 27.9748C8.65677 27.9748 9.48316 27.8295 10.2572 27.572C11.3785 28.7946 12.5994 30.3178 13.7538 32.1799C15.2804 34.6416 16.2455 36.9729 16.8725 38.8932C16.3592 39.9853 16.0636 41.2004 16.0636 42.4878C16.0636 47.1662 19.8558 50.9585 24.5343 50.9585C29.2128 50.9585 33.005 47.1662 33.005 42.4878C33.005 40.9139 32.5682 39.4463 31.8207 38.183C31.8256 38.1872 31.8306 38.1905 31.8364 38.1947C32.9992 34.5112 34.7566 30.0304 37.465 25.2249C39.5456 21.5339 41.744 18.4393 43.7905 15.9012C46.2663 15.7567 48.2314 13.7094 48.2314 11.197H48.2297Z" fill="#F49724"/>
<path d="M32.3652 1.56865C32.7398 1.25636 32.7905 0.699068 32.4774 0.324493C32.1643 -0.0500831 31.6078 -0.100746 31.2332 0.21237C30.9533 0.445753 29.7241 1.50387 28.5821 3.27957C27.4401 5.05611 26.3862 7.55023 26.4559 10.6581C26.5207 13.5501 27.534 15.8598 28.6087 17.5118C29.6834 19.1637 30.8188 20.1587 31.1277 20.422C31.4998 20.7385 32.0571 20.6928 32.3735 20.3215C32.69 19.9494 32.6443 19.3921 32.2731 19.0757C31.9101 18.7676 30.9716 17.903 30.0904 16.5484C28.8985 14.7153 28.2698 12.7204 28.2233 10.6183C28.1727 8.36666 28.7939 6.21887 30.0696 4.2347C31.0347 2.73307 32.0712 1.81449 32.3661 1.56865" fill="white"/>
<path d="M35.3229 4.33503C35.6933 4.01776 35.7365 3.45963 35.4192 3.08921C35.102 2.71879 34.5438 2.6756 34.1734 2.99287C33.9666 3.16977 33.0804 3.95298 32.2623 5.25859C31.4442 6.56421 30.6943 8.39141 30.7615 10.6571C30.8238 12.7534 31.5613 14.4261 32.3412 15.6246C33.1211 16.8231 33.9433 17.5465 34.1734 17.7433C34.5447 18.0606 35.102 18.0166 35.4192 17.6462C35.7365 17.2757 35.6925 16.7176 35.3221 16.4004C35.0729 16.1877 34.4284 15.5914 33.8229 14.6604C33.0065 13.4054 32.5713 12.0408 32.5281 10.604C32.4824 9.05668 32.8969 7.57415 33.7598 6.19711C34.4159 5.15062 35.1227 4.50695 35.3237 4.33503" fill="white"/>
<path d="M37.9034 7.22034C38.2588 6.88563 38.2763 6.32667 37.9416 5.9712C37.6069 5.61572 37.0479 5.59828 36.6924 5.93299C36.4217 6.18714 34.6335 7.92713 34.7506 10.6571C34.8544 13.0715 36.3752 14.559 36.6924 14.8564C37.0487 15.1902 37.6077 15.172 37.9416 14.8157C38.2755 14.4594 38.2572 13.9004 37.9009 13.5665C37.5936 13.2792 36.5861 12.2127 36.5164 10.5816C36.4358 8.69954 37.6575 7.45123 37.9034 7.22034Z" fill="white"/>
<path d="M54.0871 19.0639C53.7125 19.3762 53.6618 19.9335 53.975 20.3081C54.2872 20.6826 54.8445 20.7333 55.2191 20.4202C55.499 20.1868 56.7282 19.1287 57.8702 17.353C59.0122 15.5765 60.0662 13.0823 59.9964 9.97443C59.9316 7.08247 58.9184 4.77273 57.8436 3.12077C56.7689 1.46882 55.6336 0.473827 55.3246 0.210544C54.9525 -0.105894 54.3952 -0.0602143 54.0788 0.311039C53.7623 0.683123 53.808 1.24042 54.1793 1.55686C54.5422 1.86499 55.4807 2.72959 56.3619 4.0842C57.5538 5.91722 58.1825 7.91219 58.229 10.0143C58.2797 12.2659 57.6584 14.4137 56.3827 16.3979C55.4176 17.8995 54.3811 18.8181 54.0862 19.0639" fill="white"/>
<path d="M51.13 16.2965C50.7596 16.6138 50.7164 17.1719 51.0337 17.5424C51.3509 17.9128 51.909 17.956 52.2795 17.6387C52.4863 17.4618 53.3725 16.6786 54.1906 15.373C55.0086 14.0673 55.7586 12.2402 55.6913 9.97443C55.6291 7.87813 54.8915 6.20542 54.1117 5.00694C53.3318 3.80846 52.5095 3.08506 52.2795 2.88822C51.9082 2.57095 51.3509 2.61497 51.0337 2.98539C50.7164 3.35582 50.7604 3.91394 51.1308 4.23121C51.38 4.44383 52.0245 5.04016 52.63 5.9712C53.4464 7.22615 53.8816 8.59074 53.9248 10.0276C53.9705 11.5749 53.556 13.0574 52.6931 14.4345C52.037 15.4809 51.3302 16.1246 51.1292 16.2965" fill="white"/>
<path d="M48.5493 13.412C48.1939 13.7468 48.1764 14.3057 48.5111 14.6612C48.8458 15.0167 49.4048 15.0341 49.7603 14.6994C50.031 14.4452 51.8192 12.7053 51.7021 9.97525C51.5983 7.56086 50.0775 6.07335 49.7603 5.77602C49.404 5.44214 48.845 5.46041 48.5111 5.81671C48.1773 6.17302 48.1955 6.73197 48.5518 7.06585C48.8591 7.35405 49.8666 8.41964 49.9363 10.0508C50.0169 11.9328 48.7952 13.1812 48.5493 13.412Z" fill="white"/>
</svg>
