<svg width="266" height="117" viewBox="0 0 266 117" fill="none" xmlns="http://www.w3.org/2000/svg">
<g clip-path="url(#clip0_176_467)">
<path d="M94.6784 21.2416C94.6784 16.1618 90.5518 12.0439 85.4613 12.0439C80.3708 12.0439 76.2442 16.1618 76.2442 21.2416C76.2442 23.0438 76.7716 24.7182 77.6689 26.1383C74.6912 32.7677 70.8794 40.1242 65.9787 47.8272C61.4529 54.9424 56.8184 61.0633 52.4581 66.2386C52.4711 66.2483 52.4841 66.2581 52.4971 66.2678C51.1794 65.931 49.805 65.7318 48.3818 65.7318C46.3096 65.7318 44.3347 66.1285 42.5075 66.8232C40.5749 65.0646 38.5611 63.0421 36.5505 60.7168C32.6803 56.2427 29.847 51.8366 27.7585 47.9843C29.7269 45.4242 30.9082 42.2293 30.9082 38.7543C30.9082 30.3598 24.0895 23.5555 15.6773 23.5555C7.26501 23.5555 0.446289 30.3598 0.446289 38.7543C0.446289 47.1487 7.26501 53.953 15.6773 53.953C17.36 53.953 18.9747 53.6696 20.487 53.1676C22.6777 55.5513 25.0632 58.521 27.3188 62.1515C30.3013 66.9511 32.187 71.4965 33.4121 75.2403C32.4093 77.3697 31.8316 79.7387 31.8316 82.2486C31.8316 91.3701 39.241 98.7639 48.3818 98.7639C57.5227 98.7639 64.9321 91.3701 64.9321 82.2486C64.9321 79.1801 64.0785 76.3188 62.6181 73.8558C62.6278 73.8639 62.6375 73.8704 62.6489 73.8785C64.9207 66.6969 68.3544 57.9608 73.6462 48.5915C77.7111 41.3953 82.0065 35.3618 86.0049 30.4133C90.8423 30.1315 94.6817 26.1399 94.6817 21.2416H94.6784Z" fill="#F49724"/>
<path d="M63.6825 2.46915C64.4144 1.86029 64.5134 0.773741 63.9016 0.0434377C63.2898 -0.686866 62.2026 -0.785642 61.4707 -0.175166C60.9239 0.279857 58.5222 2.34284 56.291 5.8049C54.0597 9.26858 52.0005 14.1313 52.1368 20.1907C52.2634 25.8291 54.2431 30.3324 56.3429 33.5532C58.4427 36.774 60.661 38.7139 61.2647 39.2272C61.9916 39.8442 63.0805 39.7551 63.6988 39.0313C64.317 38.3058 64.2278 37.2193 63.5024 36.6023C62.7933 36.0016 60.9596 34.3159 59.2379 31.6748C56.9092 28.101 55.6808 24.2115 55.59 20.113C55.491 15.7231 56.7048 11.5356 59.1973 7.66709C61.0829 4.7394 63.1081 2.94846 63.6842 2.46915" fill="white"/>
<path d="M69.4613 7.86286C70.185 7.24428 70.2694 6.15612 69.6495 5.43391C69.0296 4.7117 67.9392 4.6275 67.2154 5.24607C66.8114 5.59098 65.0799 7.11798 63.4815 9.66352C61.8831 12.2091 60.4178 15.7715 60.5492 20.189C60.6709 24.2761 62.1119 27.5373 63.6357 29.874C65.1594 32.2106 66.7659 33.621 67.2154 34.0048C67.9408 34.6234 69.0296 34.5376 69.6495 33.8154C70.2694 33.0931 70.1834 32.005 69.4597 31.3864C68.9728 30.9719 67.7136 29.8092 66.5306 27.994C64.9355 25.5472 64.0852 22.8867 64.0008 20.0853C63.9115 17.0686 64.7213 14.1781 66.4073 11.4933C67.6893 9.45301 69.0702 8.19805 69.4629 7.86286" fill="white"/>
<path d="M74.5027 13.4884C75.1972 12.8358 75.2313 11.746 74.5773 11.0529C73.9234 10.3599 72.8313 10.3259 72.1367 10.9784C71.6077 11.4739 68.114 14.8664 68.3428 20.189C68.5456 24.8963 71.5168 27.7965 72.1367 28.3762C72.8329 29.0271 73.925 28.9915 74.5773 28.2968C75.2297 27.6022 75.194 26.5124 74.4978 25.8614C73.8974 25.3011 71.929 23.222 71.7927 20.0417C71.6353 16.3723 74.0224 13.9385 74.5027 13.4884Z" fill="white"/>
<path d="M106.123 36.5797C105.392 37.1885 105.293 38.2751 105.904 39.0054C106.514 39.7357 107.603 39.8345 108.335 39.224C108.882 38.769 111.284 36.706 113.515 33.2439C115.746 29.7803 117.805 24.9175 117.669 18.8581C117.543 13.2197 115.563 8.71643 113.463 5.49565C111.363 2.27486 109.145 0.334944 108.541 -0.178373C107.814 -0.795326 106.725 -0.706266 106.107 0.0175602C105.489 0.743006 105.578 1.82955 106.303 2.44651C107.013 3.04727 108.846 4.73296 110.568 7.37403C112.897 10.9478 114.125 14.8374 114.216 18.9358C114.315 23.3257 113.101 27.5132 110.609 31.3817C108.723 34.3094 106.698 36.1004 106.122 36.5797" fill="white"/>
<path d="M100.345 31.1842C99.6211 31.8028 99.5367 32.891 100.157 33.6132C100.776 34.3354 101.867 34.4196 102.591 33.801C102.995 33.4561 104.726 31.9291 106.325 29.3835C107.923 26.838 109.388 23.2756 109.257 18.8581C109.135 14.771 107.694 11.5097 106.17 9.17309C104.647 6.83644 103.04 5.42603 102.591 5.04226C101.865 4.42369 100.776 4.50951 100.157 5.23172C99.5367 5.95393 99.6227 7.04209 100.346 7.66067C100.833 8.07521 102.093 9.23786 103.276 11.0531C104.871 13.4999 105.721 16.1604 105.805 18.9617C105.895 21.9785 105.085 24.8689 103.399 27.5537C102.117 29.5941 100.736 30.849 100.343 31.1842" fill="white"/>
<path d="M95.3031 25.5602C94.6086 26.2128 94.5745 27.3026 95.2285 27.9957C95.8824 28.6887 96.9745 28.7227 97.6691 28.0701C98.1981 27.5746 101.692 24.1822 101.463 18.8596C101.26 14.1523 98.2889 11.2521 97.6691 10.6724C96.9729 10.0214 95.8808 10.0571 95.2285 10.7518C94.5761 11.4464 94.6118 12.5362 95.308 13.1872C95.9084 13.7491 97.8768 15.8266 98.0131 19.0069C98.1705 22.6763 95.7834 25.1101 95.3031 25.5602Z" fill="white"/>
<path d="M81.3169 57.7051L83.6829 76.2298C83.79 77.0168 83.837 77.7212 83.8289 78.3446C83.8192 78.9681 83.7884 79.6514 83.7364 80.3947H83.923C84.1178 79.6514 84.3044 78.9746 84.4813 78.3625C84.6581 77.7504 84.9064 77.0395 85.2245 76.2315L92.9308 57.7067H101.728L86.1543 92.3629H76.8268L71.1392 57.7067H81.3169V57.7051Z" fill="white"/>
<path d="M100.053 74.4925C100.832 69.05 102.857 64.7217 106.125 61.509C109.394 58.2963 113.137 56.6899 117.353 56.6899C121.569 56.6899 124.798 58.1975 126.88 61.2143C128.962 64.231 129.613 68.472 128.834 73.9355L128.25 78.0663H106.484L107.441 71.2134H119.48L119.614 70.4588C119.844 68.9286 119.649 67.651 119.029 66.6227C118.409 65.5961 117.399 65.0811 116 65.0811C114.458 65.0811 113.16 65.7807 112.107 67.1798C111.052 68.5788 110.322 70.7212 109.914 73.6051L109.515 76.3596C109.108 79.135 109.272 81.2175 110.007 82.6052C110.742 83.9929 111.961 84.6876 113.661 84.6876C114.973 84.6876 116.181 84.2391 117.288 83.3436C118.395 82.4481 119.339 81.4425 120.118 80.3268L126.416 85.7693C125.194 88.1513 123.346 90.0151 120.874 91.3591C118.403 92.7031 115.67 93.3751 112.676 93.3751C108.016 93.3751 104.527 91.7639 102.205 88.5383C99.8844 85.3143 99.1217 80.981 99.9201 75.5386L100.053 74.4893V74.4925Z" fill="white"/>
<path d="M137.656 42.2637H147.542L140.394 92.3615H130.508L137.656 42.2637Z" fill="white"/>
<path d="M147.755 74.4925C148.552 68.8752 150.603 64.5031 153.907 61.3778C157.211 58.2526 161.095 56.6899 165.56 56.6899C170.024 56.6899 173.461 58.2526 175.87 61.3778C178.28 64.5047 179.087 68.8752 178.288 74.4925L178.155 75.5418C177.358 81.1381 175.302 85.5037 171.99 88.6403C168.677 91.7769 164.789 93.346 160.325 93.346C155.86 93.346 152.427 91.7785 150.027 88.6403C147.625 85.5037 146.825 81.1381 147.622 75.5418L147.755 74.4925ZM157.589 76.4276C157.164 79.4233 157.332 81.4927 158.093 82.6408C158.854 83.7889 160.024 84.3621 161.602 84.3621C163.179 84.3621 164.539 83.7889 165.628 82.6408C166.717 81.4927 167.474 79.4233 167.9 76.4276L168.299 73.5744C168.724 70.6013 168.537 68.5481 167.74 67.4097C166.944 66.273 165.783 65.7046 164.26 65.7046C162.736 65.7046 161.417 66.273 160.3 67.4097C159.184 68.5464 158.413 70.6013 157.988 73.5744L157.589 76.4276Z" fill="white"/>
<path d="M185.572 57.7055H195.087L194.715 61.2469H194.874C195.53 60.0664 196.628 59.0608 198.17 58.2301C199.711 57.3994 201.323 56.9849 203.007 56.9849C205.93 56.9849 208.203 58.0018 209.824 60.034C211.445 62.0662 211.875 65.7712 211.113 71.1489L208.083 92.3617H198.223L201.332 70.6566C201.581 68.9078 201.453 67.7062 200.946 67.0504C200.442 66.3946 199.648 66.0675 198.567 66.0675C197.717 66.0675 196.836 66.3849 195.924 67.018C195.012 67.6528 194.262 68.613 193.678 69.9036L190.462 92.3633H180.602L185.571 57.7071L185.572 57.7055Z" fill="white"/>
<path d="M215.231 74.4925C216.01 69.05 218.035 64.7217 221.304 61.509C224.572 58.2963 228.315 56.6899 232.531 56.6899C236.747 56.6899 239.976 58.1975 242.058 61.2143C244.14 64.231 244.791 68.472 244.012 73.9355L243.428 78.0663H221.662L222.618 71.2134H234.657L234.79 70.4588C235.021 68.9286 234.826 67.651 234.206 66.6227C233.586 65.5961 232.575 65.0811 231.176 65.0811C229.635 65.0811 228.337 65.7807 227.283 67.1798C226.229 68.5788 225.498 70.7212 225.091 73.6051L224.692 76.3596C224.285 79.135 224.448 81.2175 225.184 82.6052C225.919 83.9929 227.137 84.6876 228.838 84.6876C230.149 84.6876 231.358 84.2391 232.466 83.3436C233.573 82.4481 234.516 81.4425 235.296 80.3268L241.594 85.7693C240.371 88.1513 238.524 90.0151 236.053 91.3591C233.581 92.7031 230.849 93.3751 227.855 93.3751C223.194 93.3751 219.705 91.7639 217.383 88.5383C215.063 85.3143 214.3 80.981 215.098 75.5386L215.231 74.4893V74.4925Z" fill="white"/>
<path d="M247.546 57.7054H265.671L264.395 66.4269H246.271L247.546 57.7054ZM250.524 61.9674L250.737 61.0492L252.332 49.8032H262.112L257.7 80.5569C257.487 82.1536 257.562 83.2239 257.925 83.7696C258.289 84.3169 258.824 84.589 259.534 84.589C259.869 84.589 260.228 84.5291 260.609 84.4092C260.991 84.2894 261.349 84.1534 261.685 83.9996L260.489 92.2952C260.082 92.5576 259.483 92.7924 258.696 92.9996C257.908 93.2069 257.08 93.3105 256.212 93.3105C253.182 93.3105 250.875 92.3098 249.289 90.31C247.704 88.3101 247.22 85.1687 247.84 80.884L250.524 61.9658V61.9674Z" fill="white"/>
<path d="M87.1146 100.037C88.1386 100.037 88.9386 100.438 89.5098 101.242C90.0956 102.045 90.2806 103.141 90.068 104.53L88.9499 111.872H87.952L89.0506 104.53C89.2096 103.465 89.0976 102.636 88.7114 102.04C88.3252 101.446 87.7264 101.148 86.915 101.148C86.0501 101.148 85.3004 101.471 84.6692 102.121C84.0363 102.769 83.6014 103.719 83.3613 104.969L82.3032 111.872H81.3053L82.4038 104.53C82.5759 103.465 82.4801 102.636 82.115 102.04C81.7483 101.446 81.1673 101.148 80.3689 101.148C79.4505 101.148 78.6521 101.515 77.9738 102.247C77.2955 102.981 76.8557 104.019 76.6561 105.363L75.6581 111.872H74.6602L76.4176 100.291H77.4156L77.1364 102.074C78.0273 100.715 79.186 100.035 80.6107 100.035C81.3296 100.035 81.9349 100.241 82.4266 100.649C82.9183 101.059 83.2444 101.642 83.4051 102.398C84.3495 100.822 85.5876 100.035 87.1179 100.035L87.1146 100.037Z" fill="white"/>
<path d="M101.907 103.209L102.347 100.291H103.345L101.588 111.872H100.59L100.948 109.51C99.8303 111.255 98.2936 112.127 96.3365 112.127C94.9264 112.127 93.7872 111.502 92.9223 110.25C92.0574 108.984 91.7507 107.508 92.0038 105.826C92.2829 104.019 92.9677 102.607 94.0598 101.587C95.1503 100.552 96.3885 100.035 97.7727 100.035C98.7301 100.035 99.5788 100.317 100.317 100.881C101.055 101.444 101.584 102.22 101.904 103.209H101.907ZM101.429 106.244C101.654 104.731 101.401 103.51 100.671 102.584C99.952 101.627 99.0076 101.148 97.8359 101.148C96.6643 101.148 95.6728 101.58 94.7414 102.445C93.8099 103.31 93.2371 104.467 93.0245 105.92C92.7974 107.309 93.0375 108.506 93.7434 109.51C94.4493 110.514 95.3937 111.016 96.5783 111.016C97.7629 111.016 98.8469 110.569 99.7524 109.672C100.671 108.76 101.229 107.619 101.429 106.244ZM99.4911 95.728H100.729L98.4931 98.6703H97.4952L99.4911 95.728Z" fill="white"/>
<path d="M108.075 112.128C106.185 112.128 105 111.247 104.521 109.487L105.42 108.954C105.567 109.602 105.88 110.109 106.358 110.471C106.837 110.834 107.436 111.015 108.155 111.015C108.874 111.015 109.508 110.831 110.021 110.46C110.534 110.089 110.842 109.587 110.949 108.954C111.108 107.936 110.503 107.186 109.133 106.707C107.856 106.289 106.998 105.881 106.558 105.479C105.865 104.877 105.607 104.065 105.779 103.047C105.925 102.166 106.324 101.449 106.977 100.893C107.642 100.322 108.453 100.037 109.412 100.037C110.198 100.037 110.876 100.242 111.449 100.65C112.022 101.06 112.434 101.627 112.687 102.352L111.809 102.885C111.65 102.33 111.347 101.9 110.9 101.599C110.454 101.298 109.945 101.147 109.373 101.147C108.734 101.147 108.173 101.329 107.686 101.692C107.201 102.054 106.904 102.559 106.798 103.209C106.639 104.197 107.238 104.93 108.595 105.409C108.981 105.533 109.266 105.63 109.453 105.699C109.64 105.769 109.909 105.881 110.261 106.034C110.613 106.19 110.876 106.352 111.05 106.52C111.222 106.69 111.405 106.899 111.598 107.145C111.791 107.393 111.915 107.681 111.968 108.013C112.022 108.345 112.015 108.719 111.949 109.137C111.816 110.063 111.4 110.794 110.701 111.326C110.003 111.859 109.127 112.125 108.075 112.125V112.128Z" fill="white"/>
<path d="M123.944 112.128C122.481 112.128 121.328 111.517 120.491 110.298C119.68 109.079 119.399 107.612 119.652 105.897C119.918 104.167 120.616 102.762 121.749 101.682C122.92 100.586 124.244 100.037 125.721 100.037C126.68 100.037 127.521 100.304 128.246 100.837C128.971 101.369 129.466 102.083 129.734 102.979L128.876 103.512C128.382 101.936 127.298 101.149 125.622 101.149C124.397 101.149 123.319 101.612 122.388 102.538C121.47 103.45 120.897 104.608 120.671 106.013C120.459 107.419 120.678 108.608 121.33 109.581C121.995 110.538 122.927 111.017 124.124 111.017C124.923 111.017 125.671 110.797 126.37 110.356C127.07 109.916 127.625 109.325 128.037 108.585L128.835 109.21C128.329 110.122 127.647 110.836 126.789 111.352C125.93 111.87 124.983 112.128 123.944 112.128Z" fill="white"/>
<path d="M136.7 100.037C138.19 100.037 139.316 100.639 140.074 101.844C140.846 103.049 141.091 104.477 140.812 106.129C140.772 106.376 140.733 106.561 140.692 106.684H131.689C131.61 107.997 131.892 109.047 132.538 109.834C133.184 110.621 134.078 111.014 135.224 111.014C136.874 111.014 138.138 110.305 139.016 108.883L139.795 109.485C139.316 110.305 138.654 110.949 137.809 111.419C136.963 111.89 136.054 112.125 135.084 112.125C133.567 112.125 132.402 111.539 131.59 110.365C130.779 109.207 130.506 107.724 130.772 105.918C131.026 104.205 131.71 102.799 132.828 101.703C133.919 100.591 135.211 100.035 136.702 100.035L136.7 100.037ZM131.85 105.549H139.855C139.975 104.174 139.738 103.097 139.146 102.318C138.553 101.539 137.711 101.149 136.621 101.149C135.464 101.149 134.458 101.551 133.606 102.354C132.728 103.188 132.142 104.253 131.848 105.55L131.85 105.549Z" fill="white"/>
<path d="M145.025 100.291L144.725 102.26C145.616 100.762 146.841 100.052 148.397 100.129L148.217 101.242C147.258 101.242 146.413 101.596 145.682 102.307C144.936 103.002 144.457 104.045 144.245 105.434L143.266 111.874H142.268L144.025 100.293H145.023L145.025 100.291Z" fill="white"/>
<path d="M152.751 112.128C151.287 112.128 150.135 111.517 149.298 110.298C148.486 109.079 148.206 107.612 148.459 105.897C148.725 104.167 149.423 102.762 150.555 101.682C151.725 100.586 153.051 100.037 154.528 100.037C155.485 100.037 156.327 100.304 157.053 100.837C157.778 101.369 158.273 102.083 158.541 102.979L157.682 103.512C157.189 101.936 156.105 101.149 154.429 101.149C153.204 101.149 152.126 101.612 151.195 102.538C150.276 103.45 149.703 104.608 149.478 106.013C149.265 107.419 149.484 108.608 150.137 109.581C150.802 110.538 151.733 111.017 152.931 111.017C153.729 111.017 154.477 110.797 155.177 110.356C155.875 109.916 156.431 109.325 156.843 108.585L157.642 109.21C157.135 110.122 156.454 110.836 155.595 111.352C154.737 111.87 153.789 112.128 152.751 112.128Z" fill="white"/>
<path d="M169.48 103.209L169.919 100.291H170.917L169.16 111.872H168.162L168.521 109.51C167.403 111.255 165.866 112.126 163.909 112.126C162.499 112.126 161.359 111.501 160.495 110.25C159.63 108.983 159.323 107.508 159.576 105.826C159.855 104.019 160.54 102.607 161.632 101.586C162.723 100.552 163.961 100.035 165.345 100.035C166.302 100.035 167.151 100.317 167.891 100.88C168.629 101.444 169.158 102.22 169.478 103.209H169.48ZM168.999 106.244C169.225 104.731 168.973 103.51 168.242 102.584C167.523 101.627 166.578 101.148 165.407 101.148C164.235 101.148 163.243 101.58 162.312 102.445C161.381 103.309 160.808 104.467 160.595 105.92C160.368 107.309 160.608 108.506 161.314 109.51C162.02 110.514 162.964 111.016 164.149 111.016C165.334 111.016 166.418 110.569 167.323 109.672C168.241 108.76 168.8 107.618 168.999 106.244Z" fill="white"/>
<path d="M183.406 99.9673C185.165 99.9673 186.515 100.562 187.455 101.75C188.41 102.939 188.743 104.367 188.456 106.035C188.394 106.483 188.251 106.985 188.024 107.541H180.608C180.866 108.313 181.541 108.699 182.633 108.699C183.498 108.699 184.194 108.452 184.727 107.957L187.161 110.459C185.842 111.617 184.204 112.196 182.247 112.196C180.185 112.196 178.667 111.586 177.697 110.366C176.71 109.147 176.37 107.641 176.673 105.85C176.946 104.152 177.712 102.746 178.971 101.635C180.23 100.523 181.708 99.9673 183.407 99.9673H183.406ZM181.017 104.785H184.771C184.71 103.858 184.203 103.395 183.247 103.395C182.231 103.395 181.488 103.858 181.017 104.785Z" fill="#F49724"/>
<path d="M193.46 112.198C192.096 112.198 190.984 111.975 190.127 111.526C189.27 111.079 188.638 110.352 188.227 109.348L191.799 107.611C192.131 108.491 192.724 108.93 193.574 108.93C194.119 108.93 194.423 108.768 194.484 108.444C194.53 108.244 194.397 108.07 194.087 107.923C193.775 107.776 193.301 107.611 192.665 107.424C190.314 106.775 189.314 105.463 189.663 103.486C189.799 102.683 190.14 102.005 190.687 101.447C191.672 100.46 193.008 99.9658 194.69 99.9658C195.797 99.9658 196.761 100.194 197.579 100.649C198.398 101.104 198.989 101.773 199.353 102.652L195.985 104.25C195.713 103.54 195.265 103.162 194.643 103.115C194.173 103.085 193.908 103.255 193.847 103.625C193.801 103.857 193.907 104.05 194.165 104.205C194.423 104.359 194.755 104.479 195.166 104.565C195.575 104.65 196.011 104.785 196.474 104.969C196.936 105.154 197.357 105.374 197.736 105.63C198.116 105.886 198.4 106.283 198.59 106.824C198.78 107.364 198.806 108.012 198.669 108.77C198.471 109.975 197.873 110.848 196.873 111.387C195.886 111.928 194.749 112.198 193.46 112.198Z" fill="#F49724"/>
<path d="M219.233 99.9673C220.506 99.9673 221.47 100.392 222.121 101.242C222.788 102.092 223.001 103.288 222.759 104.832L221.553 111.872H217.345L218.46 105.41C218.627 104.529 218.316 104.09 217.527 104.09C216.693 104.09 216.154 104.584 215.912 105.573L214.843 111.874H210.635L211.75 105.411C211.901 104.53 211.591 104.092 210.817 104.092C209.968 104.092 209.43 104.616 209.202 105.667L208.133 111.874H203.925L205.928 100.293H210.135L209.954 101.358C210.864 100.432 211.917 99.9689 213.115 99.9689C214.389 99.9689 215.276 100.479 215.776 101.498C216.761 100.479 217.915 99.9689 219.234 99.9689L219.233 99.9673Z" fill="#F49724"/>
<path d="M230.493 99.9673C232.252 99.9673 233.602 100.562 234.542 101.75C235.498 102.939 235.83 104.367 235.543 106.035C235.481 106.483 235.338 106.985 235.111 107.541H227.695C227.953 108.313 228.628 108.699 229.721 108.699C230.586 108.699 231.282 108.452 231.814 107.957L234.248 110.459C232.929 111.617 231.291 112.196 229.334 112.196C227.272 112.196 225.755 111.586 224.784 110.366C223.799 109.147 223.457 107.641 223.76 105.85C224.033 104.152 224.799 102.746 226.058 101.635C227.317 100.523 228.796 99.9673 230.493 99.9673ZM228.104 104.785H231.858C231.796 103.858 231.29 103.395 230.334 103.395C229.318 103.395 228.575 103.858 228.104 104.785Z" fill="#F49724"/>
<path d="M236.02 111.872L238.022 100.291H242.23L240.228 111.872C239.91 113.756 239.23 115.088 238.193 115.867C237.154 116.646 235.648 116.983 233.677 116.874L234.336 113.028C235.291 113.121 235.851 112.735 236.018 111.871L236.02 111.872ZM241.072 94.6851C241.724 94.6851 242.24 94.9247 242.618 95.4024C243.012 95.8655 243.149 96.4145 243.027 97.0476C242.921 97.6953 242.61 98.2524 242.094 98.7155C241.578 99.1786 240.994 99.4102 240.343 99.4102C239.692 99.4102 239.168 99.1786 238.774 98.7155C238.379 98.2216 238.243 97.6662 238.365 97.0476C238.456 96.4307 238.759 95.8817 239.275 95.4024C239.791 94.9247 240.39 94.6851 241.072 94.6851Z" fill="#F49724"/>
<path d="M242.55 105.805C242.823 104.184 243.574 102.809 244.802 101.682C246.045 100.539 247.6 99.9688 249.466 99.9688C251.332 99.9688 252.681 100.625 253.651 101.938C254.636 103.251 254.985 104.725 254.698 106.362C254.394 107.983 253.636 109.357 252.423 110.484C251.209 111.628 249.671 112.199 247.804 112.199C245.938 112.199 244.522 111.55 243.551 110.253C242.595 108.941 242.263 107.458 242.55 105.806V105.805ZM246.894 107.565C247.181 107.936 247.615 108.12 248.191 108.12C248.767 108.12 249.237 107.936 249.646 107.565C250.055 107.179 250.321 106.684 250.443 106.082C250.548 105.479 250.458 104.993 250.17 104.623C249.881 104.237 249.458 104.043 248.896 104.043C248.335 104.043 247.842 104.236 247.418 104.623C247.009 104.979 246.743 105.465 246.621 106.082C246.514 106.684 246.605 107.178 246.894 107.565Z" fill="#F49724"/>
<path d="M261.271 100.291L260.885 102.539C261.218 101.752 261.722 101.141 262.397 100.709C263.072 100.276 263.85 100.061 264.729 100.061L263.933 104.694C263.022 104.571 262.196 104.741 261.453 105.204C260.71 105.667 260.233 106.454 260.02 107.566L260.043 107.382L259.269 111.875H255.061L257.063 100.294H261.271V100.291Z" fill="#F49724"/>
</g>
<defs>
<clipPath id="clip0_176_467">
<rect width="266" height="117" fill="white"/>
</clipPath>
</defs>
</svg>
