<?xml version="1.0" encoding="UTF-8"?>
<svg id="Camada_2" data-name="Camada 2" xmlns="http://www.w3.org/2000/svg" viewBox="0 0 259.82 97.25">
  <defs>
    <style>
      .cls-1 {
        fill: #fff;
      }

      .cls-1, .cls-2 {
        stroke-width: 0px;
      }

      .cls-2 {
        fill: #f29e2b;
      }
    </style>
  </defs>
  <g id="manual">
    <g>
      <g>
        <path class="cls-1" d="m75.8,92.06l-6.23-32.27v-.13c0-.53.26-.79.79-.79h8.2c.48,0,.74.22.79.66l2.82,19.91c0,.13.05.2.16.2s.19-.07.23-.2l7.61-19.91c.17-.44.5-.66.98-.66l8.2.13c.26,0,.45.08.56.23.11.15.1.38-.03.69l-14.04,32.14c-.22.44-.53.66-.92.66h-8.33c-.39,0-.66-.22-.79-.66Z"/>
        <path class="cls-1" d="m126.79,77.93c-.13.53-.44.79-.92.79h-19.69c-.22,0-.33.11-.33.33.04.96.17,1.84.39,2.63.87,2.45,2.97,3.68,6.3,3.68,2.67-.04,4.97-1.18,6.89-3.42.35-.48.68-.53.98-.13l4.07,4.67c.13.18.2.35.2.53,0,.22-.09.42-.26.59-1.62,1.8-3.6,3.19-5.94,4.17-2.34.99-4.82,1.48-7.45,1.48-3.63,0-6.61-.85-8.92-2.56-2.32-1.71-3.85-4.1-4.59-7.16-.35-1.23-.53-2.78-.53-4.67,0-1.05.07-2.17.2-3.35.17-2.45.76-4.78,1.77-6.97,1.36-3.11,3.38-5.59,6.07-7.43,2.69-1.84,5.7-2.76,9.02-2.76,4.24,0,7.48,1.27,9.71,3.81,2.23,2.54,3.37,5.94,3.41,10.19.04,1.36-.09,3.22-.39,5.59Zm-19.42-7.69c-.35.88-.59,1.58-.72,2.1,0,.22.09.33.26.33h11.02c.22,0,.33-.11.33-.33,0-.53-.04-1.14-.13-1.84-.22-1.31-.75-2.33-1.61-3.06s-1.98-1.08-3.38-1.08c-2.71,0-4.64,1.29-5.77,3.88Z"/>
        <path class="cls-1" d="m128.17,92.49c-.13-.15-.18-.34-.13-.56l5.45-44.43c0-.22.09-.4.26-.56.17-.15.37-.23.59-.23h7.42c.22,0,.39.08.52.23.13.15.17.34.13.56l-5.45,44.43c-.04.22-.14.41-.3.56-.15.15-.34.23-.56.23h-7.42c-.22,0-.39-.08-.52-.23Z"/>
        <path class="cls-1" d="m146.41,90.35c-2.32-1.93-3.74-4.56-4.27-7.89-.18-.92-.26-2.06-.26-3.42,0-1.09.07-2.19.2-3.29.35-2.76.94-5.08,1.77-6.97,1.4-3.24,3.48-5.78,6.23-7.62,2.76-1.84,5.91-2.76,9.45-2.76s6.37.91,8.6,2.73c2.23,1.82,3.65,4.35,4.27,7.59.26,1.23.39,2.59.39,4.07,0,.96-.07,1.91-.2,2.83-.26,2.19-.83,4.4-1.71,6.64-1.36,3.42-3.41,6.1-6.17,8.05-2.76,1.95-5.93,2.92-9.52,2.92s-6.48-.96-8.79-2.89Zm13.49-6.38c1.07-.88,1.94-2.08,2.59-3.61.53-1.45.87-2.98,1.05-4.6.13-1.05.2-2.04.2-2.96,0-2.01-.46-3.59-1.38-4.73-.92-1.14-2.23-1.71-3.94-1.71-1.4,0-2.64.42-3.71,1.25-1.07.83-1.91,1.99-2.53,3.48-.48,1.05-.83,2.61-1.05,4.67-.13,1.1-.2,2.17-.2,3.22,0,1.93.46,3.46,1.38,4.6.92,1.14,2.21,1.71,3.87,1.71,1.4,0,2.64-.44,3.71-1.31Z"/>
        <path class="cls-1" d="m202.19,61.04c1.79,1.75,2.69,4.18,2.69,7.3,0,.39-.04,1.07-.13,2.04l-2.63,21.56c-.04.22-.14.41-.3.56-.15.15-.34.23-.56.23h-7.42c-.48,0-.72-.26-.72-.79l2.43-19.65c.04-.22.07-.57.07-1.05,0-1.45-.42-2.62-1.25-3.52-.83-.9-1.93-1.35-3.28-1.35-1.58,0-2.91.54-4,1.61-1.09,1.07-1.75,2.51-1.97,4.3l-2.43,19.65c-.04.22-.14.41-.3.56-.15.15-.34.23-.56.23h-7.42c-.22,0-.39-.08-.52-.23-.13-.15-.18-.34-.13-.56l3.94-32.2c.04-.22.14-.4.3-.56.15-.15.34-.23.56-.23h7.42c.22,0,.39.08.52.23.13.15.17.34.13.56l-.26,2.3c0,.13.03.22.1.26.07.04.14.02.23-.07,1.97-2.54,4.7-3.81,8.2-3.81,3.06,0,5.49.88,7.28,2.63Z"/>
        <path class="cls-1" d="m236.64,77.93c-.13.53-.44.79-.92.79h-19.69c-.22,0-.33.11-.33.33.04.96.17,1.84.39,2.63.87,2.45,2.97,3.68,6.3,3.68,2.67-.04,4.97-1.18,6.89-3.42.35-.48.68-.53.98-.13l4.07,4.67c.13.18.2.35.2.53,0,.22-.09.42-.26.59-1.62,1.8-3.6,3.19-5.94,4.17-2.34.99-4.82,1.48-7.45,1.48-3.63,0-6.61-.85-8.92-2.56-2.32-1.71-3.85-4.1-4.59-7.16-.35-1.23-.53-2.78-.53-4.67,0-1.05.07-2.17.2-3.35.17-2.45.76-4.78,1.77-6.97,1.36-3.11,3.38-5.59,6.07-7.43,2.69-1.84,5.7-2.76,9.02-2.76,4.24,0,7.48,1.27,9.71,3.81,2.23,2.54,3.37,5.94,3.41,10.19.04,1.36-.09,3.22-.39,5.59Zm-19.42-7.69c-.35.88-.59,1.58-.72,2.1,0,.22.09.33.26.33h11.02c.22,0,.33-.11.33-.33,0-.53-.04-1.14-.13-1.84-.22-1.31-.75-2.33-1.61-3.06-.85-.72-1.98-1.08-3.38-1.08-2.71,0-4.64,1.29-5.77,3.88Z"/>
        <path class="cls-1" d="m258.79,66.13c-.15.15-.34.23-.56.23h-6.1c-.18,0-.31.11-.39.33l-1.71,13.93c-.04.26-.07.61-.07,1.05,0,2.15,1.05,3.22,3.15,3.22h2.1c.22,0,.4.08.56.23.15.15.21.34.16.56l-.79,6.24c-.09.53-.37.81-.85.85-1.75.09-3.04.13-3.87.13-3.24,0-5.65-.49-7.25-1.48-1.6-.99-2.4-2.79-2.4-5.42,0-.35.04-.92.13-1.71l2.17-17.61c.09-.22,0-.33-.26-.33h-3.61c-.22,0-.39-.08-.53-.23-.13-.15-.18-.34-.13-.56l.72-5.85c0-.22.09-.4.26-.56.17-.15.37-.23.59-.23h3.61c.22,0,.33-.11.33-.33l.98-7.82c.04-.22.14-.4.3-.56.15-.15.34-.23.56-.23h7.15c.22,0,.39.08.53.23.13.15.17.34.13.56l-.98,7.82c0,.22.11.33.33.33h6.1c.22,0,.39.08.52.23.13.15.17.34.13.56l-.72,5.85c-.04.22-.14.41-.3.56Z"/>
      </g>
      <g>
        <g>
          <path class="cls-1" d="m106.46.47c-.6-.61-1.64-.62-2.25-.04-.31.3-.48.69-.49,1.12,0,.42.15.83.45,1.13.08.08,7.89,8.32,7.9,17.61,0,9.67-7.71,16.71-7.79,16.78-.34.3-.54.74-.54,1.19,0,.39.14.76.4,1.05.27.3.67.49,1.1.52.03,0,.07,0,.1,0,.39,0,.77-.14,1.05-.39.36-.32,8.86-8.03,8.86-19.16,0-10.55-8.43-19.46-8.79-19.83Z"/>
          <path class="cls-1" d="m100.32,5.85c-.59-.61-1.65-.63-2.25-.04-.3.29-.48.69-.48,1.11,0,.43.15.83.45,1.13.23.24,5.54,5.9,5.54,12.33,0,6.65-5.21,11.5-5.43,11.7-.35.31-.54.74-.54,1.2,0,.39.14.76.4,1.06.3.34.75.52,1.2.52.38,0,.76-.13,1.05-.39.27-.24,6.51-5.92,6.51-14.09,0-7.62-5.78-13.86-6.43-14.55Z"/>
          <path class="cls-1" d="m95.58,11.35c-.58-.61-1.63-.63-2.24-.04-.31.29-.48.69-.49,1.11,0,.42.15.83.44,1.13.03.03,2.95,3.11,2.95,6.52,0,3.43-2.7,5.98-2.84,6.11-.35.31-.55.74-.55,1.2,0,.39.14.77.4,1.06.27.3.67.49,1.1.52.03,0,.07,0,.1,0,.39,0,.77-.14,1.05-.39.16-.14,3.92-3.58,3.92-8.5,0-4.56-3.45-8.31-3.85-8.72Z"/>
          <path class="cls-1" d="m60.44,39.87c.41,0,.81-.16,1.1-.45.31-.29.48-.69.49-1.12,0-.42-.15-.83-.45-1.13-.08-.08-7.89-8.31-7.9-17.62,0-9.6,7.71-16.71,7.79-16.78.34-.3.53-.74.53-1.19,0-.39-.14-.76-.4-1.05-.27-.3-.67-.49-1.1-.52-.43-.03-.85.12-1.15.39-.36.32-8.87,7.98-8.86,19.16,0,10.58,8.43,19.46,8.79,19.83.31.31.71.48,1.14.48Z"/>
          <path class="cls-1" d="m65.45,34c.3.31.71.49,1.15.49.42,0,.81-.16,1.11-.45.3-.29.48-.69.48-1.11,0-.43-.15-.83-.45-1.14-.23-.24-5.54-5.91-5.54-12.33,0-6.62,5.21-11.5,5.43-11.7.35-.31.54-.74.54-1.2,0-.39-.14-.77-.4-1.05-.27-.3-.67-.49-1.1-.52-.42-.03-.85.12-1.15.38-.27.23-6.52,5.8-6.51,14.09,0,7.87,6.17,14.28,6.44,14.54Z"/>
          <path class="cls-1" d="m70.18,28.5c.3.31.7.48,1.14.48.41,0,.8-.16,1.1-.45.63-.61.65-1.61.05-2.25-.12-.13-2.95-3.18-2.95-6.52,0-3.43,2.7-5.98,2.84-6.11.35-.31.55-.74.55-1.2,0-.39-.14-.77-.4-1.06-.27-.3-.67-.49-1.09-.52-.43-.03-.85.11-1.15.39-.4.36-3.92,3.68-3.92,8.5,0,4.72,3.69,8.56,3.85,8.72Z"/>
        </g>
        <path class="cls-2" d="m84.36,29.48s.02,0,.04,0c-3.42,2.84-14.57,23.98-22.15,35.84-.06.1-.12.19-.18.28-3.83,6.08-1.09,6.45-.08,12.1.28,1.19.44,2.44.44,3.72,0,8.74-7.09,15.82-15.82,15.82-4.14,0-7.9-1.58-10.72-4.19-.06-.05-.13-.11-.19-.17-3.09-2.66-5.05-6.6-5.05-11,0-.78.11-1.61.27-2.47,0-.02,0-.05,0-.07.15-.78.34-1.58.51-2.4.15-.69.28-1.39.38-2.09.35-2.46-2.8-10.31-6.34-15.86-2.19-2.52-4.53-4.83-6.92-6.66-1.28.36-2.62.56-4.01.56C6.51,52.9,0,46.4,0,38.37c0-8.03,6.5-14.54,14.52-14.55,8.03,0,14.54,6.5,14.54,14.53,0,3.69-1.37,7.05-3.63,9.62.98,2.8,9.5,14.89,15.77,18.59,1.69-.62,3.51-.95,5.41-.95,1.22,0,2.4.14,3.54.39,2.09-1.25,4.42-3.42,7.1-7.24,8.16-12.66,18.77-29.59,18.69-32.43-.14-.19-.3-.38-.43-.59-.45-.71-.79-1.49-1.02-2.31-.19-.71-.3-1.45-.3-2.21,0-4.66,3.78-8.45,8.44-8.45s8.45,3.78,8.46,8.45c0,4.07-2.89,7.46-6.73,8.25Z"/>
      </g>
    </g>
  </g>
</svg>