<svg width="29" height="29" viewBox="0 0 29 29" fill="none" xmlns="http://www.w3.org/2000/svg">
<g clip-path="url(#clip0_132_104)">
<path d="M13.3672 19.5965V15.6317H9.40234C8.77664 15.6317 8.26953 15.1246 8.26953 14.4989C8.26953 13.8734 8.77664 13.3661 9.40234 13.3661H13.3672V9.40124C13.3672 8.77576 13.8743 8.26842 14.5 8.26842C15.1257 8.26842 15.6328 8.77576 15.6328 9.40124V13.3661H19.5977C20.2234 13.3661 20.7305 13.8734 20.7305 14.4989C20.7305 15.1246 20.2234 15.6317 19.5977 15.6317H15.6328V19.5965C15.6328 20.2223 15.1257 20.7294 14.5 20.7294C13.8743 20.7294 13.3672 20.2223 13.3672 19.5965ZM24.7531 4.24694C22.0144 1.50828 18.373 0 14.5 0C10.627 0 6.9856 1.50828 4.24694 4.24694C1.50828 6.9856 0 10.627 0 14.5C0 18.373 1.50828 22.0144 4.24694 24.7531C6.9856 27.4917 10.627 29 14.5 29C17.1515 29 19.7459 28.2774 22.0027 26.9103C22.5379 26.5861 22.7089 25.8896 22.3848 25.3546C22.0606 24.8194 21.3639 24.6484 20.8289 24.9725C18.9262 26.125 16.7375 26.7344 14.5 26.7344C7.75401 26.7344 2.26562 21.246 2.26562 14.5C2.26562 7.75401 7.75401 2.26562 14.5 2.26562C21.246 2.26562 26.7344 7.75401 26.7344 14.5C26.7344 16.9123 26.0171 19.2602 24.6599 21.2905C24.3121 21.8104 24.4519 22.514 24.9721 22.8618C25.492 23.2094 26.1956 23.0695 26.5434 22.5496C28.1504 20.1457 29 17.3621 29 14.5C29 10.627 27.4917 6.9856 24.7531 4.24694Z" fill="white"/>
</g>
<defs>
<clipPath id="clip0_132_104">
<rect width="29" height="29" fill="white"/>
</clipPath>
</defs>
</svg>
