<svg width="34" height="32" viewBox="0 0 34 32" fill="none" xmlns="http://www.w3.org/2000/svg">
<path d="M17.1304 0C10.5437 0 5.18506 5.19887 5.18506 11.5891C5.18506 19.5196 15.875 31.1621 16.3301 31.6538C16.7576 32.1157 17.504 32.1149 17.9307 31.6538C18.3858 31.1621 29.0757 19.5196 29.0757 11.5891C29.0756 5.19887 23.717 0 17.1304 0ZM17.1304 17.4199C13.8165 17.4199 11.1205 14.8042 11.1205 11.5891C11.1205 8.374 13.8165 5.75838 17.1304 5.75838C20.4443 5.75838 23.1403 8.37406 23.1403 11.5892C23.1403 14.8043 20.4443 17.4199 17.1304 17.4199Z" fill="url(#paint0_linear_165_25)"/>
<defs>
<linearGradient id="paint0_linear_165_25" x1="-2.45358" y1="-4" x2="24.7392" y2="36.7686" gradientUnits="userSpaceOnUse">
<stop stop-color="#FFAA00"/>
<stop offset="1" stop-color="#662085"/>
</linearGradient>
</defs>
</svg>
