<svg width="82" height="82" viewBox="0 0 82 82" fill="none" xmlns="http://www.w3.org/2000/svg">
<circle opacity="0.1" cx="40.9298" cy="41.2528" r="40.3077" fill="#4C94FF"/>
<circle cx="40.9301" cy="41.2529" r="35.7011" fill="#4D94FF"/>
<path fill-rule="evenodd" clip-rule="evenodd" d="M33.5949 27.3924C33.13 27.0462 32.4689 27.0846 32.0476 27.5078L25.6021 33.9832L25.4876 34.1164C25.1444 34.5813 25.1842 35.2398 25.606 35.6597L25.7392 35.7742C26.2041 36.1175 26.8626 36.0777 27.2825 35.6558L31.7021 31.2149V49.8698L31.713 50.0307C31.7915 50.6093 32.2875 51.0553 32.8876 51.0553C33.5423 51.0553 34.0731 50.5246 34.0731 49.8698V31.2151L38.4931 35.6558L38.6258 35.7709C39.0891 36.1163 39.7478 36.0796 40.1696 35.6597C40.6336 35.1978 40.6354 34.4472 40.1735 33.9832L33.728 27.5078L33.7196 27.5006C33.6835 27.465 33.6452 27.4318 33.6049 27.4011L33.5949 27.3924ZM49.7556 32.4733C49.6771 31.8947 49.1811 31.4487 48.5809 31.4487C47.9262 31.4487 47.3954 31.9795 47.3954 32.6342V51.2884L42.9754 46.8482L42.8427 46.7331C42.3794 46.3876 41.7208 46.4244 41.2989 46.8443C40.8349 47.3062 40.8332 48.0568 41.295 48.5208L47.7405 54.9961L47.7486 55.0031C47.7849 55.0389 47.8234 55.0724 47.8641 55.1033L47.8737 55.1116C48.3385 55.4578 48.9996 55.4194 49.4209 54.9961L55.8664 48.5208L55.9809 48.3876C56.3242 47.9227 56.2844 47.2642 55.8625 46.8443C55.3985 46.3824 54.6479 46.3841 54.186 46.8482L49.7664 51.2869V32.6342L49.7556 32.4733Z" fill="white"/>
</svg>
