<svg xmlns="http://www.w3.org/2000/svg" version="1.1" xmlns:xlink="http://www.w3.org/1999/xlink" width="512" height="512" x="0" y="0" viewBox="0 0 128 128" style="enable-background:new 0 0 512 512" xml:space="preserve" class=""><g><path d="m79.589 20.23-1.308-.716-.716-1.31a1.237 1.237 0 0 0-2.169 0l-.716 1.31-1.308.715a1.237 1.237 0 0 0 0 2.171l1.309.715.716 1.309a1.236 1.236 0 0 0 2.169 0l.716-1.309 1.308-.715a1.236 1.236 0 0 0 0-2.169zM98.077 30.018l-2.458-1.344-1.346-2.458a1.657 1.657 0 0 0-2.908 0l-1.345 2.458-2.459 1.345a1.658 1.658 0 0 0 0 2.908l2.458 1.344 1.345 2.458a1.657 1.657 0 0 0 2.908 0l1.346-2.459 2.458-1.344a1.658 1.658 0 0 0 0-2.909zM110.22 68.56 64.94 23.28a6.727 6.727 0 0 0-6.73-1.67l-20.155 6.224a8.82 8.82 0 0 1-1.98.244.989.989 0 0 0-.956 1.015c.063 2.2.557 7.245 4.191 7.579.287.026 1.874-.211 2.392-.188a4.924 4.924 0 1 1-5 5.991.241.241 0 0 1 .307-.278 19.546 19.546 0 0 0 4.367.691h.084a1.5 1.5 0 0 0 .082-3 13.63 13.63 0 0 1-4.387-.783 8.7 8.7 0 0 1-2.132-1.539c-1.9-1.9-2.269-5.175-2.415-6.264-.649-4.852-1.458-10.89-11.812-12.24a1.5 1.5 0 0 0-1.696 1.544 1.581 1.581 0 0 0 1.42 1.451c6.919.933 8.208 3.915 8.848 7.821a.582.582 0 0 1-.142.484C28.923 30.7 16.07 45.3 16.07 45.3a6.654 6.654 0 0 0-1.23 6.8l17.62 46.35a6.713 6.713 0 0 0 6.26 4.32 6.516 6.516 0 0 0 2.38-.44l14.1-5.36 13.31 13.31a6.712 6.712 0 0 0 9.49 0l32.22-32.23a6.712 6.712 0 0 0 0-9.49zm-88.94-7.95-3.64-9.57a3.685 3.685 0 0 1 .68-3.76l10.22-11.61-6.98 22.6a6.683 6.683 0 0 0-.28 2.34zm18.76 38.92a3.69 3.69 0 0 1-4.77-2.14L22.74 64.43c.15.2 30.14 30.22 30.14 30.22zm10.481-35.994a6.411 6.411 0 1 1 8.709 2.535 6.42 6.42 0 0 1-8.709-2.535zM62.527 86.99a1.5 1.5 0 1 1-2.881-.839l10.83-37.212a1.5 1.5 0 0 1 2.881.838zm20.6-10.51a6.411 6.411 0 1 1-.527-4.88 6.392 6.392 0 0 1 .531 4.88z" fill="#f5972a" opacity="1" data-original="#000000" class=""></path><path d="M54.5 57.457a3.414 3.414 0 1 0 4.636 1.349 3.4 3.4 0 0 0-4.636-1.349zM75.333 71.7a3.414 3.414 0 1 0 4.635 1.349 3.4 3.4 0 0 0-4.635-1.349z" fill="#f5972a" opacity="1" data-original="#000000" class=""></path></g></svg>