<svg width="43" height="43" viewBox="0 0 43 43" fill="none" xmlns="http://www.w3.org/2000/svg">
<g clip-path="url(#clip0_132_54)">
<path d="M30.9326 22.6731C29.9805 23.6252 25.3447 28.2612 24.3114 29.2946C23.6554 29.9506 22.5917 29.9504 21.9359 29.2946C21.2799 28.6386 21.2799 27.575 21.9359 26.9191L25.6754 23.1797H13.2135C12.2858 23.1797 11.5338 22.4277 11.5338 21.5C11.5338 20.5723 12.2858 19.8203 13.2135 19.8203H25.6754L21.936 16.081C21.28 15.425 21.28 14.3614 21.936 13.7055C22.592 13.0496 23.6555 13.0495 24.3115 13.7055C25.2246 14.6187 30.0379 19.4321 30.9312 20.3255C31.5728 20.9824 31.5668 22.0238 30.9326 22.6731ZM43 12.4609V30.5391C43 36.2819 39.1056 39.1984 38.853 39.5562C36.6325 41.777 33.6797 43 30.5391 43H12.4609C9.32025 43 6.36753 41.7769 4.1469 39.5561C3.89729 39.2024 0 36.2825 0 30.5391V12.4609C0 6.71808 3.89444 3.80164 4.14698 3.44378C6.36753 1.22306 9.32025 0 12.4609 0H30.5391C33.6797 0 36.6325 1.22306 38.8531 3.44386C39.1027 3.79761 43 6.71749 43 12.4609ZM39.6406 12.4609C39.6406 8.25256 36.733 6.17445 36.4776 5.81928C34.8914 4.23298 32.7824 3.35938 30.5391 3.35938H12.4609C10.2176 3.35938 8.10861 4.2329 6.52239 5.81919C6.25776 6.18721 3.35938 8.23022 3.35938 12.4609V30.5391C3.35938 34.7474 6.267 36.8256 6.52239 37.1807C8.10861 38.7671 10.2176 39.6406 12.4609 39.6406H30.5391C32.7824 39.6406 34.8914 38.7671 36.4776 37.1808C36.7422 36.8128 39.6406 34.7698 39.6406 30.5391V12.4609Z" fill="#FFAA00"/>
</g>
<defs>
<clipPath id="clip0_132_54">
<rect width="43" height="43" fill="white"/>
</clipPath>
</defs>
</svg>
