<svg xmlns="http://www.w3.org/2000/svg" version="1.1" xmlns:xlink="http://www.w3.org/1999/xlink" width="512" height="512" x="0" y="0" viewBox="0 0 48 48" style="enable-background:new 0 0 512 512" xml:space="preserve" class=""><g><path d="M42 3H6a5.006 5.006 0 0 0-5 5v22a5.006 5.006 0 0 0 5 5h2v7.955a2.031 2.031 0 0 0 1.269 1.902 1.962 1.962 0 0 0 2.16-.472L20.427 35H42a5.006 5.006 0 0 0 5-5V8a5.006 5.006 0 0 0-5-5zm-30 9h10a1 1 0 0 1 0 2H12a1 1 0 0 1 0-2zm20 14H12a1 1 0 0 1 0-2h20a1 1 0 0 1 0 2zm4-6H12a1 1 0 0 1 0-2h24a1 1 0 0 1 0 2z" fill="#f5972a" opacity="1" data-original="#000000" class=""></path></g></svg>