<svg xmlns="http://www.w3.org/2000/svg" version="1.1" xmlns:xlink="http://www.w3.org/1999/xlink" width="512" height="512" x="0" y="0" viewBox="0 0 512 512" style="enable-background:new 0 0 512 512" xml:space="preserve" class=""><g><circle cx="256" cy="256" r="76" fill="#f5972a" opacity="1" data-original="#000000" class=""></circle><path d="M95.901 415.099C53.404 372.602 30 316.099 30 256S53.404 139.397 95.901 96.9c5.858-5.857 5.858-15.355 0-21.213-5.857-5.857-15.355-5.857-21.213 0C26.524 123.85 0 187.886 0 256s26.524 132.149 74.688 180.312c5.857 5.857 15.355 5.857 21.213 0s5.858-15.355 0-21.213zM437.312 75.687c-5.857-5.857-15.355-5.857-21.213 0s-5.858 15.355 0 21.213C458.596 139.397 482 195.9 482 256s-23.404 116.603-65.901 159.1c-5.858 5.857-5.858 15.355 0 21.213 5.857 5.857 15.355 5.857 21.213 0C485.476 388.149 512 324.113 512 256s-26.524-132.15-74.688-180.313z" fill="#f5972a" opacity="1" data-original="#000000" class=""></path><path d="M138.328 372.673C107.163 341.509 90 300.074 90 256c0-44.073 17.163-85.508 48.328-116.673 5.858-5.857 5.858-15.355 0-21.213-5.857-5.857-15.355-5.857-21.213 0C80.284 154.945 60 203.914 60 256c0 52.087 20.284 101.056 57.115 137.886 5.857 5.857 15.355 5.857 21.213 0s5.858-15.355 0-21.213zM394.885 118.114c-5.857-5.857-15.355-5.857-21.213 0s-5.858 15.355 0 21.213C404.837 170.492 422 211.927 422 256s-17.163 85.508-48.328 116.673c-5.858 5.857-5.858 15.355 0 21.213 5.857 5.857 15.355 5.857 21.213 0C431.716 357.054 452 308.086 452 256s-20.284-101.055-57.115-137.886z" fill="#f5972a" opacity="1" data-original="#000000" class=""></path><path d="M352.459 160.541c-5.857-5.857-15.355-5.857-21.213 0s-5.858 15.355 0 21.213C351.078 201.586 362 227.953 362 256s-10.922 54.414-30.753 74.246c-5.858 5.857-5.858 15.355 0 21.213 5.857 5.857 15.355 5.857 21.213 0C377.958 325.961 392 292.059 392 256s-14.042-69.961-39.541-95.459zM180.753 330.246C160.922 310.414 150 284.047 150 256s10.922-54.414 30.753-74.246c5.858-5.857 5.858-15.355 0-21.213-5.857-5.857-15.355-5.857-21.213 0C134.042 186.039 120 219.94 120 256s14.042 69.961 39.541 95.459c5.857 5.857 15.355 5.857 21.213 0 5.857-5.857 5.857-15.355-.001-21.213z" fill="#f5972a" opacity="1" data-original="#000000" class=""></path></g></svg>