<svg width="81" height="81" viewBox="0 0 81 81" fill="none" xmlns="http://www.w3.org/2000/svg">
<circle opacity="0.1" cx="40.3077" cy="40.5714" r="40.3077" fill="#FF4C4C"/>
<circle cx="40.308" cy="40.5712" r="35.7011" fill="#FF4D4D"/>
<path fill-rule="evenodd" clip-rule="evenodd" d="M40.3076 24.7668C31.5781 24.7668 24.5024 31.8425 24.5024 40.572C24.5024 49.3016 31.5781 56.3772 40.3076 56.3772C49.0372 56.3772 56.1128 49.3016 56.1128 40.572C56.1128 31.8425 49.0372 24.7668 40.3076 24.7668ZM40.3076 27.1376C47.7278 27.1376 53.742 33.1518 53.742 40.572C53.742 47.9922 47.7278 54.0064 40.3076 54.0064C32.8874 54.0064 26.8732 47.9922 26.8732 40.572C26.8732 33.1518 32.8874 27.1376 40.3076 27.1376ZM40.9473 33.8463C40.8688 33.2678 40.3729 32.8218 39.7728 32.8218C39.1181 32.8218 38.5874 33.3525 38.5874 34.0072V41.668L38.6006 41.8446C38.653 42.1924 38.8582 42.5026 39.1655 42.686L45.124 46.2405L45.2677 46.3137C45.8048 46.5427 46.4419 46.3452 46.7493 45.8298L46.8224 45.6862C47.0514 45.1491 46.854 44.512 46.3386 44.2045L40.9575 40.9932L40.9582 34.0072L40.9473 33.8463Z" fill="white"/>
</svg>
